<svg xmlns="http://www.w3.org/2000/svg" viewBox="0 0 24 24" aria-label="GitHub icon" role="img">
  <path fill="#181717" d="M12 .5a12 12 0 0 0-3.79 23.39c.6.11.82-.26.82-.58v-2.23c-3.34.73-4.04-1.42-4.04-1.42-.55-1.38-1.33-1.75-1.33-1.75-1.09-.74.08-.72.08-.72 1.2.09 1.84 1.23 1.84 1.23 1.08 1.82 2.82 1.3 3.5.99.11-.77.42-1.29.77-1.59-2.67-.3-5.47-1.31-5.47-5.86 0-1.3.47-2.36 1.23-3.19-.12-.3-.53-1.52.12-3.17 0 0 1.01-.32 3.3 1.22a11.6 11.6 0 0 1 6 0c2.28-1.54 3.29-1.22 3.29-1.22.65 1.65.24 2.87.12 3.17.77.83 1.23 1.89 1.23 3.19 0 4.56-2.8 5.55-5.48 5.85.43.36.82 1.08.82 2.19v3.25c0 .32.21.69.83.58A12 12 0 0 0 12 .5Z"/>
</svg>