<svg xmlns="http://www.w3.org/2000/svg" viewBox="0 0 256 254" aria-label="VS Code logo" role="img">
  <path fill="#2489CA" d="M252.3 37.1 203.7 13.6a15.8 15.8 0 0 0-18 3.1L93 101.3 53.1 71a10.5 10.5 0 0 0-13.4.7L7.3 101.1a10.4 10.4 0 0 0 0 15.5l34.6 31.5-34.6 31.5a10.4 10.4 0 0 0 0 15.5l32.4 29.4a10.5 10.5 0 0 0 13.4.7L93 194.9l92.7 84.6a15.8 15.8 0 0 0 18 3.1l48.6-23.5a15.8 15.8 0 0 0 8.9-14.2V51.3a15.8 15.8 0 0 0-8.9-14.2Z"/>
  <path fill="#1070B3" d="m203.7 282.6-71-34.4L203.7 181Z" opacity=".25"/>
  <path fill="#0877B9" d="M203.7 13.6a15.8 15.8 0 0 0-18 3.1L7.3 179.5a10.4 10.4 0 0 0 0 15.5l32.4 29.4a10.5 10.5 0 0 0 13.4.7L252.3 37.1l-48.6-23.5Z"/>
  <path fill="#3C99D4" d="M203.7 282.6a15.8 15.8 0 0 0 18-3.1l34.6-31.5a10.4 10.4 0 0 0 0-15.5l-34.6-31.5 34.6-31.5a10.4 10.4 0 0 0 0-15.5l-34.6-31.5 34.6-31.5a10.4 10.4 0 0 0 0-15.5l-34.6-31.5a15.8 15.8 0 0 0-18-3.1L111 91.7v112.2l92.7 78.7Z" opacity=".9"/>
</svg>