<?xml version="1.0" encoding="UTF-8"?>
<!DOCTYPE svg PUBLIC "-//W3C//DTD SVG 1.1//EN" "http://www.w3.org/Graphics/SVG/1.1/DTD/svg11.dtd">
<!-- Creator: CorelDRAW 2020 (64-Bit) -->
<svg xmlns="http://www.w3.org/2000/svg" xml:space="preserve" width="120mm" height="120mm" version="1.1" style="shape-rendering:geometricPrecision; text-rendering:geometricPrecision; image-rendering:optimizeQuality; fill-rule:evenodd; clip-rule:evenodd"
viewBox="0 0 12000 12000"
 xmlns:xlink="http://www.w3.org/1999/xlink"
 xmlns:xodm="http://www.corel.com/coreldraw/odm/2003">
 <defs>
  <style type="text/css">
   <![CDATA[
    .fil0 {fill:none}
    .fil1 {fill:#7C221D}
    .fil3 {fill:black;fill-rule:nonzero}
    .fil4 {fill:black;fill-rule:nonzero}
    .fil2 {fill:white;fill-rule:nonzero}
    .fil5 {fill:white;fill-rule:nonzero}
   ]]>
  </style>
 </defs>
 <g id="Layer_x0020_1">
  <metadata id="CorelCorpID_0Corel-Layer"/>
  <rect class="fil0" x="-2.87" y="2.87" width="12000" height="12000"/>
  <g id="_2075117392944">
   <rect class="fil1" transform="matrix(0.59585 0.59585 -0.582384 0.582384 5996.96 2366.27)" width="6103.06" height="6244.17"/>
   <g>
    <polygon class="fil2" points="7661.36,5499.66 8164.48,6002.78 7661.36,6505.9 7506.32,6660.95 7158.24,7009.02 7003.2,7164.06 6655.13,7512.14 6500.08,7667.18 5996.96,8170.3 5493.84,7667.18 5338.79,7512.14 4990.72,7164.06 4835.68,7009.02 4487.6,6660.95 4332.56,6505.9 3829.44,6002.78 3906.96,5925.26 4332.56,5499.66 4410.08,5422.14 4487.6,5344.61 4835.68,4996.54 4913.2,4919.02 4990.72,4841.5 5338.79,4493.42 5416.32,4415.9 5493.84,4338.38 5996.96,3835.26 6500.08,4338.38 6655.13,4493.42 7003.2,4841.5 7158.24,4996.54 7506.32,5344.61 "/>
    <path class="fil3" d="M5493.84 7357.08l348.07 -348.06 -348.07 -348.07 -348.07 348.07 348.07 348.06zm2167.52 -1857.42l503.12 503.12 -503.12 503.12 -155.05 155.05 -348.07 348.07 -155.05 155.04 -348.06 348.07 -155.05 155.05 -503.12 503.12 -503.12 -503.12 -155.05 -155.05 -348.07 -348.07 -155.04 -155.04 -348.07 -348.07 -155.05 -155.05 -503.12 -503.12 77.52 -77.52 425.6 -425.6 77.52 -77.52 77.53 -77.53 348.07 -348.06 77.52 -77.53 77.52 -77.52 348.07 -348.07 77.53 -77.53 77.52 -77.52 503.12 -503.12 503.12 503.12 155.05 155.05 348.06 348.07 155.05 155.05 348.07 348.06 155.05 155.05zm-155.05 851.19l348.07 -348.07 -348.07 -348.07 -348.07 348.07 348.07 348.07zm-503.12 -503.12l348.07 -348.07 -348.07 -348.07 -348.06 348.07 348.06 348.07zm-503.11 -503.12l348.07 -348.06 -348.07 -348.07 -348.07 348.07 348.07 348.06zm-1664.4 658.17l-348.07 -348.07 -348.07 348.07 348.07 348.07 348.07 -348.07zm503.11 -503.12l-348.07 -348.07 -348.06 348.07 348.06 348.07 348.07 -348.07zm503.12 -503.11l-348.07 -348.07 -348.07 348.07 348.07 348.06 348.07 -348.06zm155.05 -851.19l-348.07 348.07 348.07 348.07 348.07 -348.07 -348.07 -348.07zm1006.23 2708.61l348.07 -348.07 -348.07 -348.07 -348.06 348.07 348.06 348.07zm-503.11 -503.12l348.07 -348.07 -348.07 -348.07 -155.05 -155.05 -348.07 -348.07 -348.07 348.07 -155.05 155.05 -348.07 348.07 348.07 348.07 155.05 155.05 348.07 348.07 348.07 -348.07 155.05 -155.05zm0 1006.23l348.07 -348.06 -348.07 -348.07 -348.07 348.07 348.07 348.06zm-1509.36 -1199.25l-348.06 348.07 348.06 348.07 348.07 -348.07 -348.07 -348.07zm1006.24 1006.23l-348.07 348.07 348.07 348.07 348.07 -348.07 -348.07 -348.07z"/>
    <rect class="fil1" transform="matrix(1.03039 -1.03039 1.09193 1.09193 5616.14 6002.79)" width="369.59" height="348.76"/>
    <path class="fil3" d="M5557.99 5944.65l438.97 -438.97 497.11 497.11 -497.11 497.11 -497.11 -497.11 58.14 -58.14zm438.97 -206.39l-264.54 264.53 264.54 264.54 264.53 -264.54 -264.53 -264.53z"/>
   </g>
   <path class="fil4" d="M4528.13 11065.39l1211.67 -1211.67 -157.72 -157.75 -1211.7 1211.7 -256.53 -256.53 1211.7 -1211.7 -1047.24 -1047.22 -1211.68 1211.69 -256.53 -256.53 1211.68 -1211.69 -157.75 -157.75 -1211.67 1211.7 -256.53 -256.53 1211.67 -1211.7 -1046.96 -1046.96 -1211.68 1211.68 -256.53 -256.53 1211.68 -1211.68 -157.74 -157.74 -1211.68 1211.69 -256.53 -256.53 1211.68 -1211.69 -0.87 -0.87 0.78 -0.8 -1211.59 -1211.59 256.53 -256.53 1211.59 1211.59 157.74 -157.72 -1211.59 -1211.59 256.53 -256.53 1211.59 1211.59 1046.97 -1046.98 -1211.59 -1211.59 256.53 -256.53 1211.59 1211.59 157.74 -157.75 -1211.59 -1211.59 256.53 -256.53 1211.59 1211.59 1047.24 -1047.22 -1211.61 -1211.59 256.53 -256.53 1211.61 1211.59 157.73 -157.73 -1211.59 -1211.59 256.53 -256.53 1211.59 1211.59 0.71 -0.71 235.79 235.79 -234.91 -234.92 1211.77 -1211.76 256.53 256.53 -1211.77 1211.76 -21.62 -21.61 179.35 179.35 1211.76 -1211.76 256.53 256.53 -1211.76 1211.76 1046.98 1046.98 1211.76 -1211.76 256.53 256.53 -1211.76 1211.76 157.73 157.73 1211.76 -1211.76 256.53 256.53 -1211.76 1211.76 1047.24 1047.22 1211.76 -1211.76 256.53 256.53 -1211.76 1211.76 157.72 157.75 1211.77 -1211.77 256.53 256.53 -1211.77 1211.77 0.63 0.62 -0.71 0.71 1211.85 1211.85 -256.53 256.53 -1211.85 -1211.85 -157.73 157.73 1211.85 1211.87 -256.53 256.53 -1211.85 -1211.87 -1047.24 1047.24 1211.85 1211.85 -256.53 256.53 -1211.85 -1211.85 -157.73 157.72 1211.85 1211.86 -256.53 256.53 -1211.85 -1211.86 -1046.98 1046.99 1211.85 1211.85 -256.53 256.53 -1211.85 -1211.85 -157.72 157.72 1211.85 1211.87 -256.53 256.53 -1211.85 -1211.87 -0.8 0.8 -0.63 -0.62 -1211.67 1211.67 -256.53 -256.53zm4633.75 -5062.61l-3164.92 -3164.92 -3164.92 3164.92 3164.92 3164.92 3164.92 -3164.92z"/>
   <path class="fil5" d="M6094.53 2398.79l-65.06 65.06 -65.04 -65.05 65.06 -65.06 65.04 65.05zm-298.18 103.03l65.06 65.06 -65.06 65.06 -65.06 -65.06 65.06 -65.06zm-260.24 260.24l65.06 65.06 -65.06 65.06 -65.06 -65.06 65.06 -65.06zm-260.24 260.24l65.06 65.06 -65.06 65.06 -65.06 -65.06 65.06 -65.06zm-260.24 260.25l65.06 65.06 -65.06 65.06 -65.06 -65.06 65.06 -65.06zm-260.24 260.24l65.06 65.06 -65.06 65.06 -65.06 -65.06 65.06 -65.06zm-260.24 260.24l65.06 65.06 -65.06 65.06 -65.06 -65.06 65.06 -65.06zm-260.24 260.24l65.06 65.06 -65.06 65.06 -65.06 -65.06 65.06 -65.06zm-260.25 260.24l65.06 65.06 -65.06 65.06 -65.06 -65.06 65.06 -65.06zm-260.24 260.24l65.06 65.06 -65.06 65.06 -65.06 -65.06 65.06 -65.06zm-260.24 260.24l65.06 65.06 -65.06 65.06 -65.06 -65.06 65.06 -65.06zm-260.24 260.24l65.06 65.06 -65.06 65.06 -65.06 -65.06 65.06 -65.06zm-260.24 260.24l65.06 65.06 -65.04 65.05 -65.06 -65.06 65.04 -65.05zm-260.21 260.21l65.06 65.06 -65.04 65.04 -65.06 -65.06 65.04 -65.04zm-260.2 260.21l65.06 65.06 -65.04 65.04 -65.06 -65.06 65.04 -65.04zm89.49 325.28l65.06 -65.06 65.06 65.06 -65.06 65.06 -65.06 -65.06zm260.24 260.24l65.06 -65.06 65.06 65.06 -65.06 65.06 -65.06 -65.06zm260.24 260.24l65.06 -65.06 65.06 65.06 -65.06 65.06 -65.06 -65.06zm260.24 260.24l65.06 -65.06 65.06 65.06 -65.06 65.06 -65.06 -65.06zm260.24 260.24l65.06 -65.06 65.07 65.06 -65.07 65.06 -65.06 -65.06zm260.25 260.24l65.06 -65.06 65.06 65.06 -65.06 65.06 -65.06 -65.06zm260.24 260.24l65.06 -65.06 65.06 65.06 -65.06 65.06 -65.06 -65.06zm260.24 260.25l65.06 -65.06 65.06 65.06 -65.06 65.06 -65.06 -65.06zm260.24 260.24l65.06 -65.06 65.06 65.06 -65.06 65.06 -65.06 -65.06zm260.24 260.24l65.06 -65.06 65.06 65.06 -65.06 65.06 -65.06 -65.06zm260.24 260.24l65.06 -65.06 65.06 65.06 -65.06 65.06 -65.06 -65.06zm260.24 260.24l65.06 -65.06 65.04 65.04 -65.06 65.06 -65.04 -65.04zm260.21 260.21l65.06 -65.06 65.04 65.04 -65.06 65.06 -65.04 -65.04zm260.2 260.2l65.06 -65.06 65.05 65.04 -65.06 65.06 -65.05 -65.04zm325.29 -103.05l-65.06 -65.06 65.06 -65.06 65.06 65.06 -65.06 65.06zm260.24 -260.24l-65.06 -65.06 65.06 -65.06 65.06 65.06 -65.06 65.06zm260.24 -260.24l-65.06 -65.06 65.06 -65.06 65.06 65.06 -65.06 65.06zm260.24 -260.24l-65.06 -65.06 65.06 -65.06 65.06 65.06 -65.06 65.06zm260.24 -260.24l-65.06 -65.06 65.06 -65.07 65.06 65.07 -65.06 65.06zm260.24 -260.25l-65.06 -65.06 65.06 -65.06 65.06 65.06 -65.06 65.06zm260.24 -260.24l-65.06 -65.06 65.06 -65.06 65.06 65.06 -65.06 65.06zm260.24 -260.24l-65.06 -65.06 65.06 -65.06 65.06 65.06 -65.06 65.06zm260.24 -260.24l-65.06 -65.06 65.06 -65.06 65.06 65.06 -65.06 65.06zm260.25 -260.24l-65.06 -65.06 65.06 -65.06 65.06 65.06 -65.06 65.06zm260.24 -260.24l-65.06 -65.06 65.06 -65.06 65.06 65.06 -65.06 65.06zm260.24 -260.24l-65.06 -65.06 65.04 -65.04 65.06 65.06 -65.04 65.04zm260.2 -260.21l-65.06 -65.06 65.05 -65.04 65.06 65.06 -65.05 65.04zm260.21 -260.2l-65.06 -65.06 65.04 -65.05 65.06 65.06 -65.04 65.05zm-116.61 -325.29l-65.06 65.06 -65.06 -65.06 65.06 -65.06 65.06 65.06zm-260.24 -260.24l-65.06 65.06 -65.06 -65.06 65.06 -65.06 65.06 65.06zm-260.24 -260.24l-65.06 65.06 -65.07 -65.06 65.07 -65.06 65.06 65.06zm-260.25 -260.24l-65.06 65.06 -65.06 -65.06 65.06 -65.06 65.06 65.06zm-260.24 -260.24l-65.06 65.06 -65.06 -65.06 65.06 -65.06 65.06 65.06zm-260.24 -260.24l-65.06 65.06 -65.06 -65.06 65.06 -65.06 65.06 65.06zm-260.24 -260.24l-65.06 65.06 -65.06 -65.06 65.06 -65.06 65.06 65.06zm-260.24 -260.24l-65.06 65.06 -65.06 -65.06 65.06 -65.06 65.06 65.06zm-260.24 -260.24l-65.06 65.06 -65.06 -65.06 65.06 -65.06 65.06 65.06zm-260.24 -260.25l-65.06 65.06 -65.06 -65.06 65.06 -65.06 65.06 65.06zm-260.24 -260.24l-65.06 65.06 -65.06 -65.06 65.06 -65.06 65.06 65.06zm-260.23 -260.22l-65.06 65.06 -65.04 -65.04 65.06 -65.06 65.04 65.04zm-260.2 -260.21l-65.06 65.06 -65.04 -65.04 65.06 -65.06 65.04 65.04z"/>
  </g>
 </g>
</svg>
