<?xml version="1.0" encoding="UTF-8"?>
<!DOCTYPE svg PUBLIC "-//W3C//DTD SVG 1.1//EN" "http://www.w3.org/Graphics/SVG/1.1/DTD/svg11.dtd">
<!-- Creator: CorelDRAW 2020 (64-Bit) -->
<svg xmlns="http://www.w3.org/2000/svg" xml:space="preserve" width="297mm" height="120mm" version="1.1" style="shape-rendering:geometricPrecision; text-rendering:geometricPrecision; image-rendering:optimizeQuality; fill-rule:evenodd; clip-rule:evenodd"
viewBox="0 0 29700 12000"
 xmlns:xlink="http://www.w3.org/1999/xlink"
 xmlns:xodm="http://www.corel.com/coreldraw/odm/2003">
 <defs>
  <style type="text/css">
   <![CDATA[
    .fil2 {fill:black}
    .fil1 {fill:#7C221D}
    .fil0 {fill:#D20A0A}
    .fil4 {fill:black;fill-rule:nonzero}
    .fil5 {fill:black;fill-rule:nonzero}
    .fil3 {fill:white;fill-rule:nonzero}
    .fil6 {fill:white;fill-rule:nonzero}
   ]]>
  </style>
 </defs>
 <g id="Layer_x0020_1">
  <metadata id="CorelCorpID_0Corel-Layer"/>
  <g id="_2580888201552">
   <rect class="fil0" transform="matrix(0.512247 0.512247 -0.500671 0.500671 5843.11 2876.52)" width="6103.06" height="6244.17"/>
   <path class="fil1" d="M15338.13 8263.94c67.82,-77.35 16.51,-203.41 9.61,-325.21 -31.65,-557.33 -99.79,-1203.17 -493.84,-1612.62 -254.43,-264.44 -639.86,-551.32 -949.7,-757.37 -455.12,-302.65 -651.74,-647.11 -234.22,-1052.83 394.13,-383.01 1150.03,-263.88 1312.87,157.09 50.87,131.52 5.21,161.19 180.59,157.67 25.05,-63.67 189.4,-968.44 172.68,-1130.62 -387.93,-132.37 -1037.69,76.73 -1400.2,244.92 -1155.85,536.28 -1124.82,1746.02 -501.73,2185l341.09 251.04c148.1,96.98 170.47,183.61 306.87,277.09 492.86,337.87 418.96,752.13 412.28,1375.22 -3.56,333.64 53.7,261.54 580.33,269.35 190.83,2.82 205.94,15.07 263.37,-38.73z"/>
   <path class="fil1" d="M16060.53 6420.35c-91.4,-378.25 116.75,-863.13 391.89,-1131.74 213.03,-207.98 132.84,-186.53 758.71,559.87 125.89,150.14 278.96,529.42 287.74,759.66 17.15,448.92 -35.22,530.67 -156.55,870.43 -51.29,143.67 -130.55,192.2 -225.58,293.63 -149.68,159.84 -181.4,57.54 -279.21,-60.71l-445.49 -522.76c-3.04,-3.48 -7.92,-8.53 -10.85,-12.1 -2.96,-3.54 -7.53,-8.81 -10.32,-12.5 -111.65,-145.92 -266.55,-562.63 -310.34,-743.78zm858.44 -1636.7l-612.11 313.99c-401.51,239.86 -770.2,744.76 -775.13,1274.93 -3.66,389.05 216.59,841.29 373.67,1110.77 87.58,150.25 392.7,467.11 521.42,613.76 207.17,236.09 185.16,168.01 489.67,40.75 596.61,-249.29 1080.45,-819.54 1127.03,-1504.16 26.74,-392.98 -153.4,-831.81 -369.33,-1129.24 -171.11,-235.7 -348.77,-412.25 -518.79,-615.32 -66.24,-79.12 -122.94,-145.81 -236.43,-105.48z"/>
   <path class="fil1" d="M18627 6217.65c41.71,-135.19 68.16,-215.58 101.97,-357.02 20.66,-86.52 87.94,-312.17 127.99,-352.86 97.76,33.13 71.23,46.23 101.2,164.99l190.87 653.58c125.87,354.54 282.1,1042.3 344.39,1438.11 67.37,428.1 -29.63,592.48 583.58,546 37.76,-2.85 31.01,-0.17 67.67,-11.24 158.05,-47.8 94.8,-450.62 215.65,-762.18 75.89,-195.64 160.75,-424.2 243.95,-653.64 148.9,-410.56 405.78,-823.99 533.65,-1241.79 88.31,35.44 70.81,-39.01 115.46,299.1l194.9 1725.42c19.5,176.62 20.44,567.86 132.67,645.96 79.05,28.42 580.93,56.44 628.65,12.87 50.46,-44.72 51.68,-33.5 8.92,-247.65 -105.13,-526.63 -249.68,-1154.79 -312.98,-1675.23 -58.54,-480.12 -156.24,-909.62 -196.54,-1399.13 -11.21,-212.89 -33.53,-186.3 -343.07,-185.99 -594.05,0.66 -218.13,-51.39 -488.64,754.2 -28.73,85.54 -85.82,224.11 -121.58,310.08 -249.79,518.47 -420.54,1005.3 -642.19,1527.91 -22.81,31.07 -14.9,20.45 -37.93,42.51 -84.25,-43.48 -96.86,-145.92 -129.43,-286.94l-452.23 -1641.64c-53.62,-134.54 -84.64,-345.41 -106.82,-513.28 -1.13,-8.42 -12.19,-80.67 -12.7,-82.75 -37.85,-154.83 -64.91,-117.91 -350.18,-120.13 -590.04,-4.54 -203.09,80.69 -435.24,829.38 -71.52,230.56 -156.69,473.22 -235.97,702.43l-206.61 739.76c-38.5,228.33 -132.05,501.63 -171.74,731.45l-72.64 98.19c-11.01,25.51 -25.14,81.32 -30.59,104.12 -34.74,145.78 -28.03,147.75 17.5,263.97 517.17,30.99 449.01,25.62 440.85,-324.89 -12.55,-538.56 138.21,-1218.48 297.21,-1733.67z"/>
   <path class="fil1" d="M12182.09 5205.35c-0.84,507.94 -3.48,1013.7 -6.97,1521.56 -1.76,258.97 -5.02,517.72 -6.97,776.55 -0.99,132.95 -11.48,243.34 -22.63,349.23 -11,104.49 -23.62,219.18 4.33,320.66 1.87,6.75 7.19,17.24 8.91,22.52 33.12,101.23 734.78,80.17 788.29,22.26 45.15,-75.33 28.39,-38.98 33.52,-153.71l-33.37 -3231.7c43.53,-1359.33 220.2,-1110.7 -499.21,-1121.96 -327.74,-5.14 -306.79,-15.3 -282.44,314.13 27.18,367.72 17.2,806.7 16.54,1180.46z"/>
   <path class="fil2" d="M23696.95 4014.07c46.01,176.5 85.76,328.1 152.16,493.65 110.64,275.84 56.08,408.89 192.7,484.01 111.12,-47.5 102.16,-180.55 149.83,-375.53 32.5,-132.97 71.7,-253.02 87.17,-380.96 141.58,-104.26 34.42,-143.97 389.39,-135.43 232.86,5.63 438.62,-40.32 487.48,98.09l33.61 409.2c48.89,748.48 -30.35,3536.36 22.43,3692.68 128.59,45.76 453.87,42.47 619.58,38.13 231.08,-6.05 238.3,-48.56 192.88,-523.35 -64.48,-673.93 -95.72,-3265.05 -25.87,-3684.48 158.64,-39.26 590.34,-44.29 716.3,20.7 218.94,137.7 249.47,1634.59 534.22,722.15 32.72,-104.82 63.93,-244.45 94.17,-357.28 162.41,-605.87 335.57,-751.92 -103.05,-755.96l-3483.52 -60.08c-216.68,16.62 -185,222.64 -59.48,314.46z"/>
   <path class="fil2" d="M23323.25 5645.95c-40.2,-271.47 10.76,-1262.58 14.75,-1659.91 0.4,-38.14 2.46,-83.42 -5.29,-120.03 -33.37,-157.07 -99.58,-120.44 -438.07,-121.25 -639.28,-1.47 -384.51,18.36 -342.99,494.24 50.55,579.68 80.86,1849.2 29.43,2397.66 -18.09,192.65 12.41,406.77 -6.49,606.27 -18.53,194.93 -3.39,397.93 -24.54,585.05 -26.07,230.2 -78.74,333 36.24,490.97 247.2,13.62 569.27,32.41 774.11,-25.52 27.19,-280 -26.66,-1471.32 -35.75,-1912.93 -4.51,-203.69 -12.66,-412.29 -1.4,-734.55z"/>
   <path class="fil1" d="M28394.43 6294.02c-30.53,-206.24 8.17,-959.19 11.21,-1261.04 0.29,-28.98 1.86,-63.37 -4.03,-91.19 -25.34,-119.33 -75.64,-91.5 -332.8,-92.11 -485.66,-1.12 -292.11,13.94 -260.56,375.47 38.4,440.38 61.41,1404.85 22.34,1821.5 -13.73,146.36 9.44,309.03 -4.92,460.61 -14.07,148.07 -2.58,302.3 -18.65,444.45 -19.81,174.88 -59.82,252.98 27.54,373 187.8,10.34 432.47,24.61 588.09,-19.4 20.66,-212.71 -20.25,-1117.77 -27.17,-1453.25 -3.41,-154.74 -9.61,-313.22 -1.05,-558.04z"/>
   <g>
    <polygon class="fil3" points="7273.98,5570.26 7706.51,6002.79 7273.98,6435.32 7140.7,6568.62 6841.45,6867.85 6708.17,7001.13 6408.94,7300.38 6275.64,7433.66 5843.11,7866.19 5410.59,7433.66 5277.29,7300.38 4978.06,7001.13 4844.77,6867.85 4545.53,6568.62 4412.24,6435.32 3979.72,6002.79 4046.36,5936.15 4412.24,5570.26 4478.89,5503.62 4545.53,5436.97 4844.77,5137.74 4911.41,5071.09 4978.06,5004.45 5277.29,4705.21 5343.94,4638.57 5410.59,4571.92 5843.11,4139.4 6275.64,4571.92 6408.94,4705.21 6708.17,5004.45 6841.45,5137.74 7140.7,5436.97 "/>
    <path class="fil4" d="M5410.59 7167.08l299.23 -299.24 -299.23 -299.23 -299.23 299.23 299.23 299.24zm1863.4 -1596.81l432.52 432.52 -432.52 432.53 -133.3 133.29 -299.23 299.23 -133.29 133.3 -299.24 299.23 -133.29 133.29 -432.53 432.53 -432.52 -432.53 -133.3 -133.29 -299.23 -299.23 -133.29 -133.3 -299.23 -299.23 -133.3 -133.29 -432.52 -432.53 66.64 -66.64 365.88 -365.88 66.65 -66.65 66.65 -66.65 299.23 -299.23 66.64 -66.65 66.65 -66.64 299.23 -299.23 66.65 -66.65 66.65 -66.65 432.52 -432.52 432.53 432.52 133.29 133.3 299.24 299.23 133.29 133.29 299.23 299.23 133.3 133.3zm-133.3 731.75l299.23 -299.23 -299.23 -299.23 -299.23 299.23 299.23 299.23zm-432.52 -432.52l299.23 -299.23 -299.23 -299.23 -299.24 299.23 299.24 299.23zm-432.53 -432.53l299.23 -299.23 -299.23 -299.23 -299.23 299.23 299.23 299.23zm-1430.87 565.82l-299.23 -299.23 -299.24 299.23 299.24 299.23 299.23 -299.23zm432.52 -432.52l-299.23 -299.23 -299.23 299.23 299.23 299.23 299.23 -299.23zm432.53 -432.53l-299.23 -299.23 -299.23 299.23 299.23 299.23 299.23 -299.23zm133.29 -731.76l-299.23 299.24 299.23 299.23 299.24 -299.23 -299.24 -299.24zm865.06 2328.57l299.23 -299.23 -299.23 -299.23 -299.24 299.23 299.24 299.23zm-432.53 -432.53l299.23 -299.23 -299.23 -299.23 -133.29 -133.29 -299.24 -299.23 -299.23 299.23 -133.29 133.29 -299.23 299.23 299.23 299.23 133.29 133.3 299.23 299.23 299.24 -299.23 133.29 -133.3zm0 865.06l299.23 -299.24 -299.23 -299.23 -299.23 299.23 299.23 299.24zm-1297.58 -1030.99l-299.23 299.23 299.23 299.23 299.23 -299.23 -299.23 -299.23zm865.05 865.05l-299.23 299.23 299.23 299.23 299.24 -299.23 -299.24 -299.23z"/>
    <rect class="fil0" transform="matrix(0.885816 -0.885816 0.938722 0.938722 5515.72 6002.8)" width="369.59" height="348.76"/>
    <path class="fil4" d="M5465.74 5952.82l377.37 -377.38 427.36 427.36 -427.36 427.36 -427.36 -427.36 49.99 -49.98zm377.37 -177.44l-227.41 227.42 227.41 227.42 227.42 -227.42 -227.42 -227.42z"/>
   </g>
   <path class="fil5" d="M4580.37 10355.08l1041.67 -1041.67 -135.6 -135.61 -1041.68 1041.68 -220.54 -220.53 1041.69 -1041.69 -900.31 -900.29 -1041.67 1041.69 -220.53 -220.54 1041.67 -1041.68 -135.61 -135.61 -1041.67 1041.68 -220.54 -220.54 1041.67 -1041.68 -900.07 -900.07 -1041.67 1041.67 -220.53 -220.54 1041.67 -1041.66 -135.61 -135.61 -1041.67 1041.68 -220.54 -220.54 1041.67 -1041.68 -0.75 -0.75 0.67 -0.68 -1041.59 -1041.6 220.54 -220.53 1041.59 1041.59 135.61 -135.6 -1041.59 -1041.59 220.53 -220.54 1041.6 1041.6 900.06 -900.08 -1041.59 -1041.6 220.54 -220.53 1041.59 1041.59 135.61 -135.61 -1041.59 -1041.59 220.53 -220.54 1041.6 1041.59 900.3 -900.29 -1041.61 -1041.59 220.54 -220.54 1041.61 1041.6 135.6 -135.6 -1041.6 -1041.59 220.54 -220.54 1041.59 1041.59 0.61 -0.61 202.71 202.71 -201.95 -201.96 1041.75 -1041.74 220.53 220.53 -1041.74 1041.75 -18.59 -18.58 154.19 154.19 1041.74 -1041.75 220.54 220.54 -1041.75 1041.74 900.08 900.08 1041.75 -1041.74 220.53 220.54 -1041.74 1041.74 135.6 135.6 1041.74 -1041.75 220.54 220.54 -1041.75 1041.74 900.31 900.29 1041.74 -1041.74 220.54 220.54 -1041.75 1041.74 135.6 135.61 1041.74 -1041.74 220.54 220.53 -1041.74 1041.75 0.53 0.53 -0.61 0.61 1041.82 1041.82 -220.54 220.54 -1041.81 -1041.82 -135.6 135.6 1041.82 1041.83 -220.54 220.54 -1041.82 -1041.84 -900.3 900.31 1041.82 1041.82 -220.54 220.53 -1041.82 -1041.82 -135.59 135.6 1041.81 1041.82 -220.53 220.54 -1041.82 -1041.82 -900.08 900.08 1041.82 1041.82 -220.54 220.53 -1041.82 -1041.82 -135.59 135.6 1041.81 1041.83 -220.53 220.54 -1041.82 -1041.83 -0.69 0.68 -0.53 -0.53 -1041.67 1041.67 -220.54 -220.54zm3983.6 -4352.29l-2720.86 -2720.86 -2720.86 2720.86 2720.86 2720.86 2720.86 -2720.86z"/>
   <path class="fil6" d="M5927 2904.47l-55.94 55.93 -55.91 -55.92 55.93 -55.93 55.92 55.92zm-256.35 88.58l55.93 55.93 -55.93 55.93 -55.93 -55.93 55.93 -55.93zm-223.72 223.73l55.93 55.93 -55.93 55.93 -55.94 -55.93 55.94 -55.93zm-223.73 223.72l55.93 55.93 -55.93 55.94 -55.93 -55.94 55.93 -55.93zm-223.73 223.73l55.93 55.93 -55.93 55.93 -55.93 -55.93 55.93 -55.93zm-223.73 223.73l55.94 55.93 -55.94 55.93 -55.93 -55.93 55.93 -55.93zm-223.72 223.72l55.93 55.93 -55.93 55.94 -55.93 -55.94 55.93 -55.93zm-223.73 223.73l55.93 55.93 -55.93 55.93 -55.93 -55.93 55.93 -55.93zm-223.73 223.73l55.94 55.93 -55.94 55.93 -55.93 -55.93 55.93 -55.93zm-223.72 223.72l55.93 55.94 -55.93 55.93 -55.94 -55.93 55.94 -55.94zm-223.73 223.73l55.93 55.93 -55.93 55.93 -55.93 -55.93 55.93 -55.93zm-223.73 223.73l55.93 55.93 -55.93 55.93 -55.93 -55.93 55.93 -55.93zm-223.72 223.72l55.93 55.94 -55.92 55.91 -55.93 -55.93 55.92 -55.92zm-223.7 223.7l55.93 55.93 -55.92 55.92 -55.93 -55.93 55.92 -55.92zm-223.7 223.7l55.93 55.93 -55.91 55.92 -55.94 -55.93 55.92 -55.92zm76.94 279.64l55.93 -55.93 55.93 55.93 -55.93 55.93 -55.93 -55.93zm223.72 223.73l55.94 -55.93 55.93 55.93 -55.93 55.93 -55.94 -55.93zm223.73 223.73l55.93 -55.93 55.93 55.93 -55.93 55.93 -55.93 -55.93zm223.73 223.72l55.93 -55.93 55.93 55.93 -55.93 55.94 -55.93 -55.94zm223.73 223.73l55.93 -55.93 55.93 55.93 -55.93 55.93 -55.93 -55.93zm223.72 223.73l55.93 -55.93 55.94 55.93 -55.94 55.93 -55.93 -55.93zm223.73 223.72l55.93 -55.93 55.93 55.93 -55.93 55.94 -55.93 -55.94zm223.73 223.73l55.93 -55.93 55.93 55.93 -55.93 55.93 -55.93 -55.93zm223.72 223.73l55.93 -55.93 55.94 55.93 -55.94 55.93 -55.93 -55.93zm223.73 223.73l55.93 -55.94 55.93 55.94 -55.93 55.93 -55.93 -55.93zm223.73 223.72l55.93 -55.93 55.93 55.93 -55.93 55.93 -55.93 -55.93zm223.72 223.73l55.94 -55.93 55.91 55.91 -55.93 55.94 -55.92 -55.92zm223.7 223.7l55.93 -55.94 55.92 55.92 -55.93 55.93 -55.92 -55.91zm223.7 223.69l55.93 -55.93 55.92 55.92 -55.93 55.93 -55.92 -55.92zm279.64 -88.59l-55.93 -55.93 55.93 -55.93 55.93 55.93 -55.93 55.93zm223.73 -223.73l-55.93 -55.93 55.93 -55.93 55.93 55.93 -55.93 55.93zm223.73 -223.72l-55.94 -55.94 55.94 -55.93 55.93 55.93 -55.93 55.94zm223.72 -223.73l-55.93 -55.93 55.93 -55.93 55.93 55.93 -55.93 55.93zm223.73 -223.73l-55.93 -55.93 55.93 -55.93 55.93 55.93 -55.93 55.93zm223.73 -223.72l-55.94 -55.94 55.94 -55.93 55.93 55.93 -55.93 55.94zm223.72 -223.73l-55.93 -55.93 55.93 -55.93 55.94 55.93 -55.94 55.93zm223.73 -223.73l-55.93 -55.93 55.93 -55.93 55.93 55.93 -55.93 55.93zm223.73 -223.73l-55.93 -55.93 55.93 -55.93 55.93 55.93 -55.93 55.93zm223.72 -223.72l-55.93 -55.93 55.93 -55.94 55.94 55.94 -55.94 55.93zm223.73 -223.73l-55.93 -55.93 55.93 -55.93 55.93 55.93 -55.93 55.93zm223.73 -223.73l-55.93 -55.93 55.91 -55.91 55.94 55.93 -55.92 55.91zm223.7 -223.69l-55.94 -55.94 55.92 -55.91 55.93 55.93 -55.91 55.92zm223.69 -223.7l-55.93 -55.93 55.92 -55.92 55.93 55.93 -55.92 55.92zm-100.25 -279.64l-55.93 55.93 -55.93 -55.93 55.93 -55.94 55.93 55.94zm-223.73 -223.73l-55.93 55.93 -55.93 -55.93 55.93 -55.93 55.93 55.93zm-223.72 -223.73l-55.93 55.93 -55.94 -55.93 55.94 -55.93 55.93 55.93zm-223.73 -223.73l-55.93 55.94 -55.93 -55.94 55.93 -55.93 55.93 55.93zm-223.73 -223.72l-55.93 55.93 -55.93 -55.93 55.93 -55.93 55.93 55.93zm-223.72 -223.73l-55.93 55.93 -55.94 -55.93 55.94 -55.93 55.93 55.93zm-223.73 -223.73l-55.93 55.94 -55.93 -55.94 55.93 -55.93 55.93 55.93zm-223.73 -223.72l-55.93 55.93 -55.93 -55.93 55.93 -55.93 55.93 55.93zm-223.72 -223.73l-55.94 55.93 -55.93 -55.93 55.93 -55.93 55.94 55.93zm-223.73 -223.73l-55.93 55.93 -55.93 -55.93 55.93 -55.93 55.93 55.93zm-223.73 -223.72l-55.93 55.93 -55.93 -55.93 55.93 -55.94 55.93 55.94zm-223.71 -223.72l-55.93 55.94 -55.92 -55.92 55.93 -55.93 55.92 55.91zm-223.7 -223.69l-55.93 55.93 -55.92 -55.92 55.94 -55.93 55.91 55.92z"/>
  </g>
 </g>
</svg>
